<svg width="30" height="30" viewBox="0 0 30 30" fill="none" xmlns="http://www.w3.org/2000/svg">
<circle cx="15" cy="15" r="15" fill="#D0D0D8"/>
<path d="M9.94297 8.39707C9.51608 7.97018 8.82396 7.97018 8.39707 8.39707C7.97018 8.82396 7.97018 9.51608 8.39707 9.94297L13.4541 15L8.39707 20.057C7.97018 20.4839 7.97018 21.176 8.39707 21.6029C8.82396 22.0298 9.51608 22.0298 9.94297 21.6029L15 16.5459L20.057 21.6029C20.4839 22.0298 21.176 22.0298 21.6029 21.6029C22.0298 21.176 22.0298 20.4839 21.6029 20.057L16.5459 15L21.6029 9.94297C22.0298 9.51608 22.0298 8.82396 21.6029 8.39707C21.176 7.97018 20.4839 7.97018 20.057 8.39707L15 13.4541L9.94297 8.39707Z" fill="black"/>
</svg>
