<svg width="20" height="20" viewBox="0 0 20 20" fill="none" xmlns="http://www.w3.org/2000/svg">
<path d="M8.52174 16.6522H3.73913C3.27788 16.6522 2.83553 16.4689 2.50938 16.1428C2.18323 15.8166 2 15.3743 2 14.913V4.47826C2 4.01701 2.18323 3.57466 2.50938 3.24851C2.83553 2.92236 3.27788 2.73913 3.73913 2.73913H14.1739C14.6352 2.73913 15.0775 2.92236 15.4037 3.24851C15.7298 3.57466 15.913 4.01701 15.913 4.47826V9.69565M12.4348 1V4.47826M5.47826 1V4.47826M2 7.95652H15.913" stroke="white" stroke-width="1.4" stroke-linecap="round" stroke-linejoin="round"/>
<circle cx="13.8261" cy="14.7391" r="4.17391" fill="white"/>
<path d="M14 14.9504C13.8517 14.9504 13.7095 14.8915 13.6047 14.7867C13.4999 14.6818 13.441 14.5396 13.441 14.3914C13.441 14.2431 13.4999 14.1009 13.6047 13.9961C13.7095 13.8913 13.8517 13.8324 14 13.8324C14.1482 13.8324 14.2904 13.8913 14.3952 13.9961C14.5001 14.1009 14.559 14.2431 14.559 14.3914C14.559 14.4648 14.5445 14.5375 14.5164 14.6053C14.4883 14.6731 14.4472 14.7348 14.3952 14.7867C14.3433 14.8386 14.2817 14.8798 14.2139 14.9078C14.1461 14.9359 14.0734 14.9504 14 14.9504ZM14 12.8262C13.5848 12.8262 13.1867 12.9911 12.8932 13.2846C12.5997 13.5781 12.4348 13.9763 12.4348 14.3914C12.4348 15.5653 14 17.2982 14 17.2982C14 17.2982 15.5652 15.5653 15.5652 14.3914C15.5652 13.9763 15.4003 13.5781 15.1067 13.2846C14.8132 12.9911 14.4151 12.8262 14 12.8262Z" fill="black"/>
</svg>
