<svg width="30" height="30" viewBox="0 0 30 30" fill="none" xmlns="http://www.w3.org/2000/svg">
<path d="M27.0968 1H11.6129V5.83871H13.5484V2.93548H27.0968C27.6774 2.93548 28.0645 3.32258 28.0645 3.90323V14.5484C28.0645 15.129 27.6774 15.5161 27.0968 15.5161H14.5161V22.2903H9.3871L5.80645 25.0968V22.2903H2.90323C2.32258 22.2903 1.93548 21.9032 1.93548 21.3226V10.6774C1.93548 10.0968 2.32258 9.70968 2.90323 9.70968H15.4839V7.77419H2.90323C1.25806 7.77419 0 9.03226 0 10.6774V21.3226C0 22.9677 1.25806 24.2258 2.90323 24.2258H3.87097V29.1613L9.96774 24.2258H16.4516V17.4516H27.0968C28.7419 17.4516 30 16.1936 30 14.5484V3.90323C30 2.25806 28.7419 1 27.0968 1Z" fill="#D56829"/>
<path d="M3.5188 19.9812H5.74102L6.29658 18.4997H9.16695L9.7225 19.9812H11.9447L8.79658 11.7405H6.57435L3.5188 19.9812ZM7.68547 14.0553L8.61139 16.9257H6.75954L7.68547 14.0553Z" fill="#D56829"/>
<path d="M16.2966 14.5184C17.3151 14.5184 18.704 14.2407 20.0003 13.5925C21.2966 14.2407 22.7781 14.5184 23.704 14.5184V12.6666C23.704 12.6666 22.7781 12.6666 21.7596 12.2962C22.8707 11.1851 23.704 9.51844 23.704 7.11103V6.1851H20.9263V4.33325H19.0744V6.1851H16.2966V8.03696H21.7596C21.5744 9.70362 20.8337 10.7221 20.0003 11.3703C19.4448 10.9073 18.8892 10.2592 18.5189 9.42585H16.5744C16.9448 10.6295 17.5003 11.5555 18.2411 12.2962C17.3151 12.6666 16.4818 12.6666 16.2966 12.6666V14.5184Z" fill="#D56829"/>
</svg>
